<svg id="Layer_1" data-name="Layer 1" xmlns="http://www.w3.org/2000/svg" viewBox="0 0 422.72 195"><g id="M"><path d="M140.27,64.39v65.68c0,6-5,12-10.57,12.82-6.86,1.05-12.93-2.51-15.14-8.79a13.24,13.24,0,0,1-.57-4.42V16.74A12.7,12.7,0,0,1,123.59,4,12.23,12.23,0,0,1,138,10c6.8,12.33,13.3,24.82,19.89,37.26q14.78,27.91,29.51,55.84c.44.84.53,2.19,1.69,2.26s1.42-1.26,1.86-2.08q17-31.38,34-62.79c5.27-9.75,10.5-19.53,15.82-29.26C244.15,5.06,250,2.39,256.11,4a13.65,13.65,0,0,1,10,13.42q.12,36.28,0,72.55a13.46,13.46,0,0,1-8.82,12.7c-5.38,1.94-10.9.36-14.84-4.16-2.76-3.18-2.92-7.06-3-10.92-.09-7.82,0-15.64,0-23.82-2.22.77-2.49,2.53-3.17,3.84-11.73,22.54-23.37,45.13-35.14,67.66-4.16,8-13.15,10.2-19.91,5.25a16.36,16.36,0,0,1-4.67-6.21Q160,101.39,143.48,68.5c-.72-1.44-1.54-2.84-2.31-4.25Z" style="fill:#698fce"/><path d="M252.62,143a13.29,13.29,0,1,1,.2,0Z" style="fill:#3c4352"/></g><g id="S"><path d="M349.14,0C364.43.17,378,4.82,389.37,15.29c4.74,4.36,8,9.29,5.56,16.17-2.68,7.67-10.71,10.58-17.47,6.1-3.21-2.12-6-5-9.28-6.89-11-6.38-22.33-8.2-34.12-2.2a15.47,15.47,0,0,0-7.1,7.45c-2.63,5.61-1,10.91,4.67,14.89C339.68,56.45,349,59.49,358,63.08s17.94,7.42,26,13c12.39,8.56,19.17,19.92,17.26,35.22-2,16-10.87,27-26.26,32.29-12,4.1-24.18,4.85-36-.9-6.36-3.1-8.62-8.72-6.55-14.88s7.27-8.76,14.37-7.67c4.79.73,9.57,1.46,14.47.43,7.88-1.65,13.51-8.07,13.52-15.6,0-4.26-2-7.38-5.27-9.79-7.82-5.8-16.91-9-26-12.12-8.59-3-17.17-6-25.06-10.65-12.29-7.24-19.86-17.5-19.22-32.21.64-15,7.83-26.23,21-33.46A56.63,56.63,0,0,1,349.14,0Z" style="fill:#6a8fcf"/><path d="M310.18,128a13,13,0,1,1,.31,0Z" style="fill:#3b4252"/></g><g id="Slogan"><path d="M120.63,187.4h-4.55l-4.34-13.7c-.18-.6-.42-1.46-.7-2.59a21.93,21.93,0,0,1-.5-2.35c-.12.67-.31,1.55-.57,2.61s-.48,1.87-.66,2.39l-4.23,13.64h-4.55l-3.3-11.5-3.36-11.47h4.27l3.65,13.39a54.3,54.3,0,0,1,1.23,5.69c.13-.89.32-1.89.57-3s.49-2,.7-2.67l4.17-13.42h4.14l4.27,13.48a46.77,46.77,0,0,1,1.29,5.6,37.15,37.15,0,0,1,1.26-5.72l3.64-13.36h4.23Z" style="fill:#83878b"/><path d="M138.92,187.72a10,10,0,0,1-7.06-2.37,8.47,8.47,0,0,1-2.54-6.51,9.21,9.21,0,0,1,2.36-6.7,8.61,8.61,0,0,1,6.49-2.43,8.46,8.46,0,0,1,6.05,2.09,7.51,7.51,0,0,1,2.22,5.75v2H133.55a5.38,5.38,0,0,0,1.52,3.89,5.67,5.67,0,0,0,4,1.36,16.81,16.81,0,0,0,3.19-.29,18.49,18.49,0,0,0,3.17-1v3a13.57,13.57,0,0,1-3,.91A20.45,20.45,0,0,1,138.92,187.72Zm-.75-15.21a4.38,4.38,0,0,0-3.14,1.11,5,5,0,0,0-1.41,3.25h8.78a4.53,4.53,0,0,0-1.16-3.26A4.15,4.15,0,0,0,138.17,172.51Z" style="fill:#83878b"/><path d="M161,169.71a7,7,0,0,1,5.63,2.35,11.87,11.87,0,0,1,0,13.28,8,8,0,0,1-11.39,0h-.28l-.75,2.05h-3.07V163h4.1v5.81c0,.43,0,1.07-.07,1.92s-.08,1.39-.1,1.62h.17A6.79,6.79,0,0,1,161,169.71Zm-1.07,3a4.4,4.4,0,0,0-3.58,1.32c-.73.87-1.1,2.34-1.13,4.39v.25a7.52,7.52,0,0,0,1.12,4.6A4.38,4.38,0,0,0,160,184.7a3.82,3.82,0,0,0,3.31-1.56,7.57,7.57,0,0,0,1.13-4.49Q164.43,172.72,159.92,172.72Z" style="fill:#83878b"/><path d="M188.6,181.17a5.57,5.57,0,0,1-2.47,4.8,11.54,11.54,0,0,1-6.8,1.75,17.77,17.77,0,0,1-7.1-1.21V183a20.58,20.58,0,0,0,3.71,1.16,17.74,17.74,0,0,0,3.67.42,6.38,6.38,0,0,0,3.66-.84,2.67,2.67,0,0,0,1.18-2.28,2.75,2.75,0,0,0-1.08-2.19,17.17,17.17,0,0,0-4.48-2.12A12,12,0,0,1,174,174.2a5.73,5.73,0,0,1-1.43-3.93,5.28,5.28,0,0,1,2.27-4.52,10.16,10.16,0,0,1,6.1-1.65,19.7,19.7,0,0,1,7.31,1.44l-1.33,3.07a17.44,17.44,0,0,0-6.08-1.29,5,5,0,0,0-3.08.79,2.51,2.51,0,0,0-1.05,2.1,2.7,2.7,0,0,0,.42,1.53,4,4,0,0,0,1.38,1.2,24.52,24.52,0,0,0,3.46,1.5,19.9,19.9,0,0,1,4.13,2,5.9,5.9,0,0,1,1.92,2.06A5.68,5.68,0,0,1,188.6,181.17Z" style="fill:#83878b"/><path d="M192.86,165.42a1.92,1.92,0,0,1,.61-1.53,3,3,0,0,1,3.41,0,2,2,0,0,1,.6,1.53,1.89,1.89,0,0,1-.6,1.48,3,3,0,0,1-3.41,0A1.86,1.86,0,0,1,192.86,165.42Zm4.36,22h-4.11V170h4.11Z" style="fill:#83878b"/><path d="M210.3,184.73a11.21,11.21,0,0,0,3-.42v2.78a9.1,9.1,0,0,1-1.76.45,13.52,13.52,0,0,1-2.23.18c-3.9,0-5.84-1.84-5.84-5.53v-9.37h-2.64v-1.64l2.83-1.35,1.4-3.67h2.53V170h5.51v2.8H207.6v9.3a2.47,2.47,0,0,0,.75,2A2.89,2.89,0,0,0,210.3,184.73Z" style="fill:#83878b"/><path d="M225.62,187.72a10,10,0,0,1-7.06-2.37,8.44,8.44,0,0,1-2.55-6.51,9.21,9.21,0,0,1,2.37-6.7,8.6,8.6,0,0,1,6.48-2.43,8.43,8.43,0,0,1,6,2.09,7.51,7.51,0,0,1,2.22,5.75v2H220.25a5.34,5.34,0,0,0,1.52,3.89,5.66,5.66,0,0,0,4,1.36,16.89,16.89,0,0,0,3.19-.29,18.76,18.76,0,0,0,3.17-1v3a13.57,13.57,0,0,1-3,.91A20.53,20.53,0,0,1,225.62,187.72Zm-.76-15.21a4.41,4.41,0,0,0-3.14,1.11,5.05,5.05,0,0,0-1.4,3.25h8.77a4.48,4.48,0,0,0-1.15-3.26A4.18,4.18,0,0,0,224.86,172.51Z" style="fill:#83878b"/><path d="M254.91,187.72c-2.93,0-5.15-.77-6.68-2.3a10.72,10.72,0,0,1,.11-13.36q2.39-2.35,6.9-2.35a14.24,14.24,0,0,1,5.51,1l-1.25,3a13.52,13.52,0,0,0-4.3-.91c-3.34,0-5,2-5,6a6.66,6.66,0,0,0,1.25,4.39,4.56,4.56,0,0,0,3.67,1.47,11.39,11.39,0,0,0,5.19-1.23v3.22a8.67,8.67,0,0,1-2.35.84A15.48,15.48,0,0,1,254.91,187.72Z" style="fill:#83878b"/><path d="M282,178.68a8.9,8.9,0,0,1-2.43,6.65,9.24,9.24,0,0,1-6.77,2.39,10.16,10.16,0,0,1-4.79-1.1,7.68,7.68,0,0,1-3.2-3.16,9.93,9.93,0,0,1-1.12-4.78,8.83,8.83,0,0,1,2.42-6.6,9.29,9.29,0,0,1,6.8-2.37,9,9,0,0,1,6.64,2.43A8.76,8.76,0,0,1,282,178.68Zm-14.07,0q0,6,4.94,6t4.9-6q0-6-4.93-6a4.38,4.38,0,0,0-3.75,1.55A7.15,7.15,0,0,0,267.92,178.68Z" style="fill:#83878b"/><path d="M303.73,187.4H299.6V176.72a4.34,4.34,0,0,0-.9-3,3.69,3.69,0,0,0-2.86-1,4.8,4.8,0,0,0-3.81,1.39c-.81.92-1.21,2.47-1.21,4.63v8.66h-4.11V170h3.22l.58,2.28h.21a5.57,5.57,0,0,1,2.48-1.92,9.12,9.12,0,0,1,3.57-.67q7,0,7,6.36Z" style="fill:#83878b"/><path d="M322.44,182.45a4.42,4.42,0,0,1-2.06,3.91,10.74,10.74,0,0,1-5.92,1.36,15.34,15.34,0,0,1-6.2-1.05v-3.2a16.52,16.52,0,0,0,6.34,1.42c2.53,0,3.8-.69,3.8-2.06a1.52,1.52,0,0,0-.42-1.1,5,5,0,0,0-1.38-.91,26.83,26.83,0,0,0-2.68-1.07,12.83,12.83,0,0,1-4.52-2.33,4.06,4.06,0,0,1-1.18-3,3.87,3.87,0,0,1,2-3.47,10.38,10.38,0,0,1,5.45-1.23,16.87,16.87,0,0,1,6.45,1.24l-1.33,2.78a15.77,15.77,0,0,0-5.26-1.16c-2.17,0-3.25.55-3.25,1.66a1.64,1.64,0,0,0,.85,1.39,19.8,19.8,0,0,0,3.7,1.55,18,18,0,0,1,3.47,1.53,4.71,4.71,0,0,1,1.61,1.59A4.24,4.24,0,0,1,322.44,182.45Z" style="fill:#83878b"/><path d="M340.52,187.4l-.58-2.27h-.21a5.7,5.7,0,0,1-2.44,1.9,8.94,8.94,0,0,1-3.61.69,7.61,7.61,0,0,1-5.24-1.57,6.1,6.1,0,0,1-1.73-4.76V170h4.14v10.72a4.28,4.28,0,0,0,.91,3,3.67,3.67,0,0,0,2.85,1,4.78,4.78,0,0,0,3.8-1.39c.81-.93,1.22-2.48,1.22-4.66V170h4.12V187.4Z" style="fill:#83878b"/><path d="M353.72,187.4h-4.11V163h4.11Z" style="fill:#83878b"/><path d="M366.8,184.73a11.15,11.15,0,0,0,3-.42v2.78a8.73,8.73,0,0,1-1.76.45,13.43,13.43,0,0,1-2.23.18q-5.83,0-5.84-5.53v-9.37h-2.64v-1.64l2.83-1.35,1.4-3.67h2.54V170h5.51v2.8h-5.51v9.3a2.5,2.5,0,0,0,.74,2A2.93,2.93,0,0,0,366.8,184.73Z" style="fill:#83878b"/><path d="M373.43,165.42a2,2,0,0,1,.6-1.53,2.55,2.55,0,0,1,1.72-.53,2.48,2.48,0,0,1,1.69.53,2,2,0,0,1,.61,1.53,1.89,1.89,0,0,1-.61,1.48,2.43,2.43,0,0,1-1.69.54,2.5,2.5,0,0,1-1.72-.54A1.89,1.89,0,0,1,373.43,165.42Zm4.35,22h-4.11V170h4.11Z" style="fill:#83878b"/><path d="M400.67,187.4h-4.12V176.72a4.34,4.34,0,0,0-.9-3,3.72,3.72,0,0,0-2.86-1,4.83,4.83,0,0,0-3.82,1.39c-.8.92-1.2,2.47-1.2,4.63v8.66h-4.11V170h3.22l.57,2.28h.21a5.6,5.6,0,0,1,2.49-1.92,9.11,9.11,0,0,1,3.56-.67q7,0,7,6.36Z" style="fill:#83878b"/><path d="M422.72,170v2l-3.3.55a4.94,4.94,0,0,1,1.05,3.05,5,5,0,0,1-2.06,4.23,9.4,9.4,0,0,1-5.69,1.54,10.62,10.62,0,0,1-1.68-.13c-.88.49-1.33,1.07-1.33,1.73a1,1,0,0,0,.63.9,6.11,6.11,0,0,0,2.28.29H416a8.06,8.06,0,0,1,4.86,1.23,4.13,4.13,0,0,1,1.66,3.54,5,5,0,0,1-2.71,4.55q-2.7,1.6-7.83,1.61a11.75,11.75,0,0,1-6-1.26,4,4,0,0,1-2.08-3.58,3.61,3.61,0,0,1,1.12-2.7,6.37,6.37,0,0,1,3.16-1.52,2.88,2.88,0,0,1-1.35-1,2.4,2.4,0,0,1,.07-3.12,7.33,7.33,0,0,1,1.82-1.34,5.22,5.22,0,0,1-2.44-1.89,5.17,5.17,0,0,1-.93-3.07,5.26,5.26,0,0,1,2-4.39,9.06,9.06,0,0,1,5.66-1.55,14.78,14.78,0,0,1,1.72.1c.6.07,1.05.14,1.36.21Zm-15.19,20.09a2,2,0,0,0,1.2,1.84,7.17,7.17,0,0,0,3.36.64,11.22,11.22,0,0,0,5-.86,2.59,2.59,0,0,0,1.65-2.3,1.68,1.68,0,0,0-.9-1.61,8,8,0,0,0-3.35-.48h-3.11a4.71,4.71,0,0,0-2.81.75A2.37,2.37,0,0,0,407.53,190.11Zm1.76-14.46a3.28,3.28,0,0,0,.94,2.51,3.75,3.75,0,0,0,2.68.88q3.57,0,3.57-3.42a3.63,3.63,0,0,0-.88-2.62,3.58,3.58,0,0,0-2.69-.92,3.68,3.68,0,0,0-2.7.91A3.61,3.61,0,0,0,409.29,175.65Z" style="fill:#83878b"/></g><g id="Lampadina"><path d="M45.77,158.33c-3.69,0-7.39.08-11.09,0-4.39-.11-6.59-2.24-6.66-6.71,0-2.33-.14-4.31-2.46-5.66-1.45-.85-2.68-2.67-2.34-4.18,1.17-5.14-.84-10.34.56-15.37a4.09,4.09,0,0,0-.34-3.54,22.48,22.48,0,0,1-3-10.32C19.72,99.27,13,88.32,7.14,77-1.25,60.7-3,44.25,5.91,27.52c9.6-18,30.86-27.68,50.32-22.79A47,47,0,0,1,91.38,48.82a53.43,53.43,0,0,1-7,27.94,200,200,0,0,0-8.92,18.33c-2.35,5.34-4.4,10.75-4.4,16.76a20,20,0,0,1-3,11.18,2.68,2.68,0,0,0-.25,3.09,7.16,7.16,0,0,1,0,7.19,3.68,3.68,0,0,0,.18,3.54c1.53,3.46.91,6.7-1.95,9a6.47,6.47,0,0,0-2.36,5.39c-.14,5-2.29,7-7.22,7C52.9,158.37,49.34,158.33,45.77,158.33ZM35.55,99.45V93.59c0-2-.29-4.8,2.5-4.87,3.15-.07,2.73,2.89,2.77,5q.13,6.26,0,12.53c0,2.12.71,3.09,2.87,2.93a22.73,22.73,0,0,1,3.69,0c2.68.27,3.67-.83,3.56-3.57-.18-4-.1-8.08,0-12.11,0-2-.67-4.84,2.35-4.84S56,91.62,56,93.79v12.53c0,1.22-.24,2.68,1.58,2.84s3.39.53,3.29,2.79c-.09,2-1.68,2.08-3.21,2.48-3,.8-1.28,3.44-1.61,5.24s1.1,2.14,2.59,2.24c4.52.22,6.92-2.11,7.09-8.54.24-9,3.29-17.13,7.11-25,2.59-5.37,5.35-10.66,8-16a46.3,46.3,0,0,0,4.72-29.89c-3.91-21.58-26-37.25-46.61-33C12.83,14.86-1.21,41.1,8.22,66.83c2.46,6.7,6.59,12.51,9.39,19,3.77,8.63,8.18,17,8.15,26.82a13.94,13.94,0,0,0,2.2,7.54c1.55,2.4,3.9,1.67,6,1.56,2.39-.13,1.46-2.23,1.58-3.59.18-2,.31-4-2.7-3.94A2.22,2.22,0,0,1,30.6,112a1.27,1.27,0,0,1,0-.28,2.21,2.21,0,0,1,2-2.42,1.74,1.74,0,0,1,.32,0c2.67,0,2.7-1.66,2.65-3.61S35.55,101.53,35.55,99.45Zm10.16,27.64H32.2c-1.89,0-3.86.2-4,2.53-.18,2.55,2,2.69,3.75,2.7q13.93.12,27.85,0c1.66,0,3.54-.14,3.56-2.46,0-2.48-1.84-2.77-3.73-2.78Zm.35,10.64H31.69c-1.69,0-3.59,0-3.49,2.4.09,2.09,1.72,2.58,3.55,2.58h28.3c1.86,0,3.39-.54,3.3-2.77s-1.72-2.23-3.3-2.23Zm-.4,15.17H56.29c1.9,0,2.19-1.12,2.19-2.73s-.65-2.24-2.19-2.24H35.42c-1.73,0-2.39.87-2.42,2.58s.72,2.48,2.44,2.45c3.41-.09,6.82-.05,10.22-.06Zm-.07-31c2.37-.29,5.43,1.29,5.49-3.6,0-4.47-2.38-4-5.15-4s-5.62-.68-5.49,4.12c0,4.57,2.82,3.27,5.15,3.47Z" style="fill:#83878b"/><path d="M45.72,16.45c18.18-.89,33.63,13.37,34.5,31.87S67.08,82.53,48.9,83.42q-1.59.08-3.18,0c-18.18-.89-32.2-16.61-31.32-35.1A33.23,33.23,0,0,1,45.72,16.45ZM73.51,50A28,28,0,0,0,45.76,21.75a28.23,28.23,0,0,0-.28,56.45,28,28,0,0,0,28-28V50Z" style="fill:#84888c"/><path d="M40.28,67.68c-1.81-.37-2.55-1.56-1.89-3.57q4.83-14.8,9.69-29.58c.6-1.83,1.79-2.87,3.72-2.16s1.78,2.24,1.26,3.81L43.58,65C43.08,66.49,42.42,67.82,40.28,67.68Z" style="fill:#83878b"/><path d="M68.42,49.66c.07,1.6-.89,2.44-1.75,3.35-2,2.06-4.07,4.12-6.13,6.15-1.1,1.12-2.49,1.42-3.67.32-1.4-1.26-1-2.68.1-4,1.53-1.91,4.63-3.15,4.53-5.59s-3.14-3.6-4.65-5.59c-1-1.21-1.26-2.49-.14-3.74a2.07,2.07,0,0,1,2.93-.42l0,0c2.91,2.72,5.65,5.59,8.41,8.49C68.35,48.91,68.35,49.43,68.42,49.66Z" style="fill:#85898e"/><path d="M35.46,57.22a2.53,2.53,0,0,1-1.1,2.47,2.41,2.41,0,0,1-3.05-.24q-3.86-3.73-7.56-7.66a2.56,2.56,0,0,1-.18-3.57,1.62,1.62,0,0,1,.18-.19c2.37-2.51,4.8-5,7.26-7.39a2.42,2.42,0,0,1,3.43-.36,2.61,2.61,0,0,1,.24.23c1.17,1.12.87,2.49,0,3.75-1.53,2.09-5,3.36-4.69,5.87.27,2,3.07,3.68,4.69,5.59A5.49,5.49,0,0,1,35.46,57.22Z" style="fill:#85898e"/></g></svg>